<svg width="133" height="42" viewBox="0 0 190 59" xmlns="http://www.w3.org/2000/svg"><g transform="translate(163.23)"><ellipse fill="#d15c22" cx="13.27" cy="13.18" rx="13.27" ry="13.18"/><path d="M13.2 11.62l1.47-1.43a1 1 0 0 1 1.38 0c.38.37.38.97 0 1.34l-2.1 2.03a1 1 0 0 1-1.45.08L7.43 8.71a.93.93 0 0 1 0-1.34 1 1 0 0 1 1.38 0l4.38 4.24zm-5.08-.69c.54 0 .98.48.98 1.08v6.18c0 .6-.44 1.08-.98 1.08s-.98-.48-.98-1.08v-6.18c0-.6.44-1.08.98-1.08zm10.3-3.83a1 1 0 0 1 .97 1.03v10.1a1 1 0 0 1-.97 1.04 1 1 0 0 1-.98-1.03V8.14a1 1 0 0 1 .98-1.04z" fill="#fff"/></g><path d="M50.67 20.58a4.3 4.3 0 0 1 3.27.3 4.12 4.12 0 1 1-6.12 3.78 4.14 4.14 0 0 1 2.85-4.08zM5.08 22.45c2.26.03 4.52-.02 6.79.03 3.16 8.38 6.4 16.74 9.6 25.1 3.25-8.35 6.45-16.74 9.63-25.12h6.78c1.56 11.82 3.2 23.62 4.77 35.43-2.2 0-4.4.02-6.6 0-1-7.6-1.99-15.19-3.05-22.77L24.67 57.9c-2.02 0-4.03.02-6.05 0-2.76-7.62-5.56-15.22-8.34-22.82-.99 7.6-2.03 15.21-3.03 22.82-2.33.02-4.66-.01-6.98.01v-.15c.57-3.33.92-6.7 1.41-10.04 1.12-8.42 2.3-16.84 3.4-25.26zm94.94 3.63c.63.07 1.4-.2 1.94.13.03 2.1 0 4.22.01 6.33 2.7.04 5.39 0 8.08.02.01 2.24.01 4.48 0 6.73h-8.13v9.26c.01 1.01.16 2.15.95 2.87.96.9 2.43.92 3.63.6 1.03-.25 1.8-1.01 2.55-1.71.4 1.9.89 3.77 1.3 5.66a7.7 7.7 0 0 1-5.72 2.94c-1.86.1-3.8-.15-5.43-1.1a6.66 6.66 0 0 1-3-3.77c-.57-1.61-.6-3.35-.58-5.05v-9.7h-4.35c.08-.82-.29-1.81.33-2.48 2.8-3.58 5.63-7.14 8.42-10.73zm-26.09 5.75c3.35-.52 7 .44 9.45 2.84 2.2 2.11 3.18 5.22 3.2 8.21V57.9H80.3V44.22c-.01-1.63-.5-3.35-1.75-4.47-2.42-2.17-6.56-1.64-8.6.8-.48.6-.87 1.31-.85 2.1V57.9h-6.28V32.39h6.08l.01 2.47c.93-1.88 3.04-2.78 5.03-3.03zm44.85 3.09a12.98 12.98 0 0 1 11.53-2.9c2.94.66 5.53 2.57 7.17 5.08 1.98 2.96 2.62 6.65 2.23 10.16-6.28.08-12.57.01-18.85.03a5.58 5.58 0 0 0 3.28 4.06c3.03 1.23 6.58.95 9.49-.46.94-.43 1.67-1.17 2.44-1.84.6 1.57 1.26 3.1 1.83 4.68-.25.72-.89 1.27-1.42 1.81-2.9 2.53-6.99 3.23-10.7 2.72a12.87 12.87 0 0 1-9.1-5.46c-3.53-5.44-2.76-13.46 2.1-17.88zm6.3 3.44c-1.85.48-3.56 1.86-3.95 3.8 4.1 0 8.2.03 12.3 0a4.55 4.55 0 0 0-1.84-2.94c-1.88-1.3-4.35-1.41-6.5-.86zm29.77-5.89a6.14 6.14 0 0 1 6.47.3c.35.3.81.63.7 1.14-.18 1.85-.59 3.68-.8 5.53a6.32 6.32 0 0 0-5.15-.82c-2.16.56-3.86 2.7-3.67 4.94V57.9h-6.37V32.39h6.17c.02 1.06 0 2.13.01 3.2a6.25 6.25 0 0 1 2.64-3.12zm-106 .25c2.06.03 4.13.01 6.2.01v25.68c-2.06 0-4.13.02-6.19 0 0-8.56.02-17.12-.01-25.69z" fill="#000"/></svg>